<?xml version="1.0" standalone="no"?>
<!DOCTYPE svg PUBLIC "-//W3C//DTD SVG 20010904//EN"
 "http://www.w3.org/TR/2001/REC-SVG-20010904/DTD/svg10.dtd">
<svg version="1.0" xmlns="http://www.w3.org/2000/svg"
 width="55.000000pt" height="55.000000pt" viewBox="0 0 55.000000 55.000000"
 preserveAspectRatio="xMidYMid meet">

<g transform="translate(0.000000,55.000000) scale(0.100000,-0.100000)"
fill="#000000" stroke="none">
<path d="M0 275 l0 -275 275 0 275 0 0 275 0 275 -275 0 -275 0 0 -275z m220
140 c0 -8 -11 -13 -27 -13 -93 2 -93 2 -93 -47 l0 -45 55 0 c43 0 55 -3 55
-16 0 -10 -8 -15 -22 -14 -13 1 -38 2 -55 1 -33 -1 -33 -1 -33 -51 l0 -50 60
0 c47 0 60 -3 60 -15 0 -12 -16 -15 -80 -15 l-80 0 0 143 0 142 80 -3 c59 -3
80 -7 80 -17z m254 15 c17 -6 24 -15 20 -24 -4 -11 -12 -13 -31 -5 -53 20
-121 0 -144 -42 -16 -30 -13 -117 5 -144 18 -28 76 -47 117 -38 27 5 29 9 29
49 0 42 -1 44 -30 44 -20 0 -30 5 -30 15 0 11 12 15 50 15 l50 0 0 -69 c0 -80
-1 -81 -92 -81 -71 0 -111 20 -133 66 -20 42 -19 107 2 151 27 58 120 89 187
63z"/>
</g>
</svg>
